<svg viewBox="0 0 24 24" xmlns="http://www.w3.org/2000/svg"><path d="m12 2.2467a10.00042 10.00042 0 0 0 -3.16248 19.48749c.5.08752.6875-.21247.6875-.475 0-.23749-.01251-1.025-.01251-1.86249-2.51251.46249-3.16251-.61247-3.36251-1.17497a3.636 3.636 0 0 0 -1.025-1.41253c-.35-.1875-.85-.65-.01251-.66248a2.00117 2.00117 0 0 1 1.53751 1.02497 2.13742 2.13742 0 0 0 2.91248.825 2.10376 2.10376 0 0 1 .63752-1.33746c-2.225-.25-4.55-1.11254-4.55-4.9375a3.89187 3.89187 0 0 1 1.025-2.6875 3.59373 3.59373 0 0 1 .1-2.65s.83747-.26251 2.75 1.025a9.42747 9.42747 0 0 1 5 0c1.91248-1.3 2.75-1.025 2.75-1.025a3.59323 3.59323 0 0 1 .1 2.65 3.869 3.869 0 0 1 1.025 2.6875c0 3.83747-2.33752 4.6875-4.5625 4.9375a2.36814 2.36814 0 0 1 .675 1.85c0 1.33752-.01251 2.41248-.01251 2.75 0 .26251.1875.575.6875.475a10.0053 10.0053 0 0 0 -3.18749-19.48753z"/></svg>